<svg height="75" viewBox="0 0 125 75" width="125"
     xmlns="http://www.w3.org/2000/svg">
  <defs>
    <style>.a {
      fill-rule: evenodd;
      fill: url(#a);
    }</style>
    <linearGradient gradientUnits="objectBoundingBox" id="a" x1="0.868" x2="-0.062" y1="1.041">
      <stop offset="0" stop-color="#d8ad65"/>
      <stop offset="1" stop-color="#f0d6a3"/>
    </linearGradient>
  </defs>
  <g transform="translate(-45.788 -112.614)">
    <path class="a"
          d="M79.239,133.648H89.8l-.88,24.284h81.866v11.693H86.281s-3.707-1.349-5.282-3.6c-1.82-2.6-1.761-8.095-1.761-8.095Zm-15.845,0H74.837v23.385s.2,5.243-1.761,8.095a9.633,9.633,0,0,1-5.282,3.6h-8.8s4-2.2,4.4-5.4C63.956,158.873,63.394,133.648,63.394,133.648Zm-13.2,0H61.633v23.385s.2,5.243-1.761,8.095a9.633,9.633,0,0,1-5.282,3.6h-8.8s4-2.2,4.4-5.4C50.752,158.873,50.189,133.648,50.189,133.648ZM162.425,177.72a4.948,4.948,0,1,1-4.842,4.947A4.9,4.9,0,0,1,162.425,177.72Zm-93.31-55.764a4.948,4.948,0,1,1-4.842,4.947A4.9,4.9,0,0,1,69.115,121.956Zm-7.727-1.883,11-7.459,1.656,2.551-11,7.459Z"
          transform="translate(0 0)"/>
  </g>
</svg>
